C:\Users\israe\Dropbox\PhDWork\ExperimentalData\subject7\055\P7S055W04_filtered35.mot
nRows=8
nColumns=28

name C:\Users\israe\Dropbox\PhDWork\ExperimentalData\subject7\055\P7S055W04_filtered35.mot
datacolumns 28
datarows 8
range 1.9000000000 1.9070000000
endheader
time	ground_force_1_vx	ground_force_1_vy	ground_force_1_vz	ground_force_1_px	ground_force_1_py	ground_force_1_pz	ground_moment_1_mx	ground_moment_1_my	ground_moment_1_mz	ground_force_2_vx	ground_force_2_vy	ground_force_2_vz	ground_force_2_px	ground_force_2_py	ground_force_2_pz	ground_moment_2_mx	ground_moment_2_my	ground_moment_2_mz	ground_force_3_vx	ground_force_3_vy	ground_force_3_vz	ground_force_3_px	ground_force_3_py	ground_force_3_pz	ground_moment_3_mx	ground_moment_3_my	ground_moment_3_mz
        1.9000000000	        0.0024464690	        0.0582283829	       -0.0325116715	        0.1988394961	        0.0000558755	       -0.3004071324	       -0.0172200442	        0.0009876142	       -0.0015833561	      -10.0505707611	      622.8608871885	      -77.4742540866	        0.2029003516	       -0.0000795827	        0.4543649445	        0.4962104526	        2.9490376934	       -6.1633215635	       -0.0000000000	        0.0000000000	       -0.0000000000	        0.2076431971	        0.0000770316	        1.3583900146	        0.0000000000	        0.0000000000	       -0.0000000000	
        1.9010000000	       -0.0053930392	        0.0098704447	       -0.0096153420	        0.1988394961	        0.0000558755	       -0.3004071324	       -0.0036767600	       -0.0000601024	        0.0007528107	      -10.0176543509	      622.7093301679	      -78.1264931107	        0.2029003516	       -0.0000795827	        0.4543649445	        0.5498433237	        2.9296461074	       -6.1760038470	       -0.0000000000	        0.0000000000	       -0.0000000000	        0.2076431971	        0.0000770316	        1.3583900146	        0.0000000000	        0.0000000000	       -0.0000000000	
        1.9020000000	       -0.0164461497	        0.0000000000	        0.0250093289	        0.1988394961	        0.0000558755	       -0.3004071324	        0.0166181988	       -0.0015983145	        0.0041255238	       -9.9823125586	      622.5389004376	      -78.7764077089	        0.2029003516	       -0.0000795827	        0.4543649445	        0.6041950539	        2.9101952971	       -6.1896107081	       -0.0000000000	        0.0000000000	       -0.0000000000	        0.2076431971	        0.0000770316	        1.3583900146	        0.0000000000	        0.0000000000	       -0.0000000000	
        1.9030000000	       -0.0312136028	        0.0000000000	        0.0737175904	        0.1988394961	        0.0000558755	       -0.3004071324	        0.0449872044	       -0.0037171957	        0.0087140706	       -9.9438895408	      622.3448991735	      -79.4214457004	        0.2029003516	       -0.0000795827	        0.4543649445	        0.6595414897	        2.8908183185	       -6.2043258484	       -0.0000000000	        0.0000000000	       -0.0000000000	        0.2076431971	        0.0000770316	        1.3583900146	        0.0000000000	        0.0000000000	       -0.0000000000	
        1.9040000000	       -0.0500901975	        0.0000000000	        0.1386791768	        0.1988394961	        0.0000558755	       -0.3004071324	        0.0826330745	       -0.0064959876	        0.0146703413	       -9.9020114497	      622.1235352489	      -80.0599738459	        0.2029003516	       -0.0000795827	        0.4543649445	        0.7161075744	        2.8716853800	       -6.2200837622	       -0.0000000000	        0.0000000000	       -0.0000000000	        0.2076431971	        0.0000770316	        1.3583900146	        0.0000000000	        0.0000000000	       -0.0000000000	
        1.9050000000	       -0.0732781730	        0.0000000000	        0.2215900994	        0.1988394961	        0.0000558755	       -0.3004071324	        0.1304713886	       -0.0099905068	        0.0220918296	       -9.8563784892	      621.8720330930	      -80.6911954442	        0.2029003516	       -0.0000795827	        0.4543649445	        0.7738727827	        2.8530550117	       -6.2367280224	       -0.0000000000	        0.0000000000	       -0.0000000000	        0.2076431971	        0.0000770316	        1.3583900146	        0.0000000000	        0.0000000000	       -0.0000000000	
        1.9060000000	       -0.1006773642	        0.0000000000	        0.3232917341	        0.1988394961	        0.0000558755	       -0.3004071324	        0.1889099402	       -0.0142168989	        0.0309868755	       -9.8063806098	      621.5881279228	      -81.3145602926	        0.2029003516	       -0.0000795827	        0.4543649445	        0.8326097142	        2.8352230022	       -6.2541394236	       -0.0000000000	        0.0000000000	       -0.0000000000	        0.2076431971	        0.0000770316	        1.3583900146	        0.0000000000	        0.0000000000	       -0.0000000000	
        1.9070000000	       -0.1317512770	        0.0000000000	        0.4432884900	        0.1988394961	        0.0000558755	       -0.3004071324	        0.2575706637	       -0.0191313656	        0.0412316847	       -9.7515389853	      621.2693482048	      -81.9297554306	        0.2029003516	       -0.0000795827	        0.4543649445	        0.8919171226	        2.8184280134	       -6.2722183897	       -0.0000000000	        0.0000000000	       -0.0000000000	        0.2076431971	        0.0000770316	        1.3583900146	        0.0000000000	        0.0000000000	       -0.0000000000	
